<svg width="108" height="43" viewBox="0 0 108 43" fill="none" xmlns="http://www.w3.org/2000/svg">
<g id="Layer_1" clip-path="url(#clip0_310_1107)">
<g id="Group">
<path id="Vector" d="M57.0662 11.5098C56.6882 11.5098 56.3102 11.5098 55.943 11.5098C55.9322 12.8775 55.889 14.2451 55.9862 15.6019C55.727 15.3612 55.4894 15.0767 55.1762 14.9016C54.6686 14.6171 54.0746 14.5077 53.4914 14.5187C52.8002 14.5515 52.0766 14.7594 51.5798 15.2955C50.8886 15.952 50.6402 16.9258 50.5646 17.8449C50.5322 18.7311 50.543 19.6502 50.8994 20.4708C51.191 21.2149 51.785 21.8604 52.5518 22.0902C53.3402 22.3309 54.2258 22.309 54.9926 21.9698C55.3922 21.7948 55.6838 21.4446 55.9862 21.1383C56.0294 21.4665 56.0834 21.7948 56.1158 22.123C56.429 22.123 56.753 22.123 57.0662 22.123C57.0554 18.5889 57.0662 15.0548 57.0662 11.5207V11.5098ZM55.8674 19.4642C55.781 20.0551 55.5434 20.7006 55.0034 20.996C54.4634 21.2805 53.8154 21.3462 53.2214 21.2039C52.6382 21.0726 52.1846 20.5912 51.9902 20.0222C51.7526 19.4314 51.7418 18.7858 51.7634 18.1622C51.7634 17.5385 51.893 16.893 52.1954 16.3459C52.4438 15.9301 52.8434 15.5909 53.3294 15.5034C53.9342 15.394 54.6038 15.4815 55.1222 15.8426C55.5434 16.1599 55.7378 16.6741 55.835 17.1774C55.9646 17.9324 55.9754 18.6983 55.8782 19.4533L55.8674 19.4642Z" fill="white"/>
<path id="Vector_2" d="M99.9316 17.4846C99.9424 16.8719 99.91 16.2263 99.6292 15.6683C99.3592 15.0884 98.7544 14.7492 98.1604 14.6179C97.4152 14.4757 96.616 14.4538 95.914 14.7711C95.4712 14.9571 95.104 15.2963 94.8232 15.6902C94.8448 15.351 94.8988 15.0118 94.888 14.6726C94.888 13.6113 94.888 12.5609 94.888 11.4996C94.4992 11.4996 94.1212 11.4777 93.7324 11.5215C93.7324 15.0446 93.7324 18.5787 93.7324 22.1019C94.1212 22.1019 94.51 22.1019 94.8988 22.1019C94.8988 20.7014 94.8988 19.2899 94.8988 17.8894C94.9204 17.3205 95.0176 16.7187 95.3308 16.2263C95.6764 15.7121 96.3136 15.5261 96.8968 15.4823C97.4152 15.4495 97.9984 15.5261 98.3764 15.9309C98.722 16.3029 98.7868 16.85 98.7868 17.3533C98.7868 18.9398 98.7868 20.5263 98.7868 22.1128C99.1648 22.1128 99.5536 22.1128 99.9316 22.1128C99.9316 20.5701 99.9316 19.0383 99.9316 17.4955V17.4846Z" fill="white"/>
<path id="Vector_3" d="M77.3802 21.1389C76.9806 20.931 76.797 20.4606 76.8078 20.0229C76.8078 18.5349 76.8078 17.0578 76.8078 15.5697C77.5206 15.5259 78.2333 15.5697 78.9353 15.5478C78.9353 15.2524 78.9353 14.946 78.9353 14.6506C78.2225 14.6506 77.5098 14.6506 76.8078 14.6506C76.8078 14.0707 76.8078 13.5018 76.8078 12.9219C76.581 12.9219 76.3541 12.9219 76.1273 12.9219C75.9869 13.3595 75.8681 13.7972 75.7385 14.2349C75.6953 14.3552 75.6738 14.5084 75.5334 14.5631C75.2202 14.7163 74.8962 14.8257 74.5938 15.0008C74.5938 15.1868 74.5938 15.3728 74.5938 15.5588C74.9502 15.5588 75.2958 15.5588 75.6522 15.5807C75.6522 17.1125 75.6522 18.6333 75.6522 20.1651C75.6522 20.5153 75.7169 20.8544 75.8573 21.1717C76.0409 21.6203 76.4405 21.9595 76.8941 22.1127C77.5745 22.3315 78.3197 22.255 78.9893 22.0471C78.9893 21.7407 78.9893 21.4343 78.9893 21.1389C78.4709 21.2483 77.8878 21.3906 77.3802 21.1389Z" fill="white"/>
<path id="Vector_4" d="M62.952 14.5845C62.0448 14.3985 61.0296 14.5188 60.2844 15.1097C59.5608 15.6568 59.1504 16.543 59.0208 17.4293C58.8804 18.3702 58.9128 19.3659 59.2692 20.2631C59.6472 21.2041 60.5112 21.9372 61.494 22.1341C62.628 22.3639 63.8268 22.2216 64.9068 21.773C64.9068 21.4339 64.9068 21.0947 64.9068 20.7555C64.1724 21.0071 63.4164 21.2588 62.6388 21.2369C62.0232 21.2588 61.3644 21.1166 60.9 20.6789C60.3384 20.1537 60.1332 19.344 60.1332 18.5891C61.8288 18.5891 63.5352 18.5891 65.2308 18.5891C65.2524 17.7685 65.2524 16.9041 64.896 16.1491C64.5396 15.3613 63.8052 14.7486 62.952 14.5845ZM60.1548 17.6372C60.2196 17.0682 60.3708 16.4883 60.7704 16.0616C61.2132 15.5364 61.9692 15.3723 62.628 15.4926C63.0924 15.5692 63.492 15.8975 63.7188 16.3132C63.9456 16.7071 63.9888 17.1776 63.9888 17.6262C62.7144 17.6262 61.44 17.6262 60.1656 17.6262L60.1548 17.6372Z" fill="white"/>
<path id="Vector_5" d="M84.7253 18.5794C84.1205 18.1417 83.4077 17.9338 82.7273 17.6494C82.3061 17.4852 81.8741 17.3211 81.5393 16.9929C81.2477 16.7084 81.2153 16.1832 81.5069 15.8878C81.7661 15.6252 82.1333 15.5267 82.4789 15.4939C82.9217 15.4501 83.3645 15.472 83.7965 15.5814C84.1853 15.669 84.5417 15.8221 84.9305 15.9097C85.0601 15.6033 85.1897 15.2969 85.3085 14.9906C84.1853 14.5092 82.9109 14.356 81.7229 14.6623C81.1721 14.8155 80.6213 15.1547 80.3621 15.6908C80.1893 16.03 80.1893 16.4239 80.2217 16.7959C80.2757 17.3102 80.6429 17.7478 81.0641 18.0104C81.7877 18.47 82.6409 18.6779 83.3969 19.0717C83.7317 19.2359 84.0773 19.4328 84.2717 19.7611C84.4445 20.155 84.3365 20.6692 83.9801 20.9209C83.5805 21.1944 83.0837 21.2491 82.6085 21.26C81.7769 21.271 80.9669 21.0193 80.2109 20.6911C80.2109 21.0412 80.2109 21.3913 80.2109 21.7524C80.5889 21.9712 81.0101 22.0916 81.4421 22.1572C82.2089 22.2667 82.9973 22.2776 83.7425 22.1025C84.2825 21.9603 84.8225 21.6868 85.1357 21.2163C85.4381 20.7786 85.4813 20.2097 85.4273 19.6845C85.3733 19.2249 85.0925 18.8201 84.7253 18.5684V18.5794Z" fill="white"/>
<path id="Vector_6" d="M89.9842 15.5923C90.6214 15.5267 91.237 15.7346 91.8418 15.9096C91.9714 15.5814 92.0794 15.2531 92.1982 14.9249C91.7986 14.7061 91.345 14.6185 90.9022 14.5529C90.319 14.4653 89.7142 14.5091 89.1418 14.6514C88.5154 14.8155 87.943 15.1875 87.565 15.7236C87.1438 16.3035 86.9494 17.0147 86.863 17.7259C86.7874 18.645 86.8198 19.6078 87.1978 20.4613C87.3922 20.9318 87.727 21.3257 88.1266 21.643C88.7206 22.0916 89.4766 22.2338 90.2002 22.2447C90.8266 22.2447 91.4638 22.1572 92.0362 21.8946C92.1118 21.5554 92.047 21.2053 92.0578 20.8552C91.291 21.1615 90.4486 21.3475 89.6278 21.2053C89.0662 21.1068 88.6018 20.691 88.3426 20.1877C88.0834 19.6735 88.0294 19.0936 87.997 18.5246C87.997 17.7916 88.0834 17.0147 88.4938 16.402C88.8178 15.9096 89.401 15.6361 89.9734 15.6033L89.9842 15.5923Z" fill="white"/>
<path id="Vector_7" d="M107.999 18.589C107.977 17.9216 108.075 17.2323 107.859 16.5977C107.664 15.9303 107.232 15.3285 106.649 14.9565C105.936 14.5079 105.051 14.4313 104.241 14.6063C103.258 14.7924 102.437 15.5801 102.081 16.5102C101.724 17.473 101.659 18.5343 101.854 19.541C101.951 20.0114 102.113 20.471 102.383 20.8649C102.761 21.4338 103.333 21.8496 103.981 22.0684C104.575 22.2654 105.223 22.2873 105.839 22.2435C106.487 22.2107 107.113 22.0356 107.707 21.7949C107.707 21.4557 107.707 21.1165 107.707 20.7773C106.779 21.1384 105.774 21.3682 104.781 21.2259C104.338 21.1493 103.906 20.9415 103.593 20.6023C103.096 20.0771 102.945 19.3221 102.923 18.6219C104.608 18.6219 106.303 18.6219 107.988 18.6219L107.999 18.589ZM103.593 16.0397C104.025 15.5473 104.737 15.3941 105.364 15.5035C105.807 15.5801 106.239 15.8318 106.465 16.2366C106.725 16.6524 106.768 17.1667 106.822 17.6481C105.537 17.6481 104.241 17.6481 102.955 17.6481C103.031 17.0682 103.182 16.4664 103.603 16.0397H103.593Z" fill="white"/>
<path id="Vector_8" d="M72.0248 14.6504C72.014 16.0509 72.0248 17.4514 72.0248 18.8519C71.9924 19.4975 71.8844 20.1977 71.4416 20.701C71.0204 21.1387 70.4048 21.2809 69.8216 21.2809C69.3464 21.2809 68.8388 21.1715 68.504 20.7995C68.1908 20.4165 68.1368 19.8914 68.1152 19.4099C68.1152 17.8234 68.1152 16.2369 68.1152 14.6504C67.748 14.6504 67.37 14.6504 67.0028 14.6504C66.992 16.3244 67.0028 17.9985 67.0028 19.6725C66.992 20.2087 67.1 20.7448 67.3592 21.2153C67.6292 21.6748 68.126 21.9812 68.6336 22.1125C69.4652 22.3204 70.3832 22.2875 71.1608 21.9155C71.528 21.7405 71.7872 21.4341 72.0788 21.1496C72.1328 21.4669 72.1868 21.7842 72.2516 22.1125C72.5648 22.1125 72.878 22.1125 73.1804 22.1125C73.1804 19.6288 73.1804 17.145 73.1804 14.6613C72.8024 14.6613 72.4244 14.6613 72.0464 14.6613L72.0248 14.6504Z" fill="white"/>
</g>
<g id="Group_2">
<path id="Vector_9" d="M16.5688 17.1117C16.2988 16.8053 16.0072 16.5208 15.6508 16.3239C14.5708 15.6783 13.2532 15.5252 12.022 15.6565C11.4604 15.733 10.9096 15.8972 10.4236 16.1707C9.37595 16.7944 8.68475 17.8885 8.31755 19.0374C7.76675 20.7771 7.74515 22.6481 7.91795 24.4534C8.03675 25.5585 8.32835 26.6636 8.91155 27.6155C9.33275 28.2501 9.90515 28.7972 10.5856 29.1363C11.6008 29.6287 12.778 29.6615 13.8796 29.5084C14.9056 29.3661 15.9424 28.9613 16.6444 28.1626C17.53 27.0684 17.8 25.6241 17.9188 24.2455C17.9512 22.5277 18.016 20.788 17.5624 19.114C17.3572 18.3918 17.098 17.6587 16.5904 17.1007L16.5688 17.1117Z" fill="white"/>
<path id="Vector_10" d="M40.8786 12.5718C38.7078 7.71374 34.6578 3.77481 29.8194 1.70687C27.4866 0.689313 24.981 0.142239 22.4538 0H20.3802C18.4686 0.109415 16.557 0.437659 14.7318 1.05038C10.6602 2.3743 7.02059 4.98931 4.40699 8.41399C0.756593 13.2064 -0.733806 19.4321 0.346194 25.3842C0.886194 28.3712 2.06339 31.227 3.76979 33.7216C5.26019 35.8771 7.12859 37.77 9.27779 39.2471C11.3622 40.6913 13.695 41.7417 16.1358 42.3654C17.4318 42.7265 18.771 42.8578 20.0994 43.0109H22.2378C25.5102 42.8796 28.7502 41.9824 31.623 40.4069C33.6534 39.2908 35.5218 37.8466 37.0878 36.1288C40.7598 32.1789 42.8766 26.7628 42.7686 21.3359C42.7902 18.327 42.099 15.3181 40.8678 12.5827L40.8786 12.5718ZM20.6286 31.5005C19.8942 31.5005 19.1598 31.5005 18.4254 31.5005C18.3606 30.9644 18.2526 30.4392 18.1878 29.9031C18.1554 29.6405 18.1122 29.3888 18.0474 29.1262C17.8854 29.2684 17.7342 29.4326 17.6046 29.6076C16.8594 30.5595 15.7902 31.227 14.6346 31.5443C13.6626 31.8288 12.6474 31.8725 11.6538 31.8069C10.239 31.7193 8.83499 31.227 7.76579 30.2751C7.18259 29.7389 6.64259 29.1371 6.27539 28.415C5.44379 26.9051 5.13059 25.1545 5.06579 23.4366C5.02259 22.1018 5.06579 20.756 5.34659 19.4539C5.67059 17.7908 6.42659 16.1715 7.67939 15.0117C8.79179 13.9613 10.3038 13.4361 11.7942 13.3595C13.2198 13.272 14.6994 13.4908 15.963 14.1911C16.6218 14.5631 17.2158 15.0664 17.691 15.6682C17.7882 15.7995 17.9286 15.8761 18.0582 15.9527C18.0798 15.4275 17.9826 14.9023 17.9718 14.388C17.9718 14.0707 17.9178 13.7425 17.9178 13.4252C17.9178 11.4338 17.9178 9.44249 17.9178 7.46209C17.9178 7.03537 17.8962 6.60865 17.961 6.18193C18.8466 6.18193 19.7322 6.18193 20.6178 6.18193C20.6286 12.5718 20.6178 18.9725 20.6178 25.3623C20.6178 27.4084 20.6286 29.4435 20.6178 31.4896L20.6286 31.5005ZM36.915 29.4873C36.1698 30.4939 35.0358 31.1504 33.8478 31.4677C32.5302 31.8397 31.1586 31.8725 29.8086 31.8178C28.4586 31.7631 27.0978 31.5552 25.8558 31.03C25.6506 30.9206 25.4022 30.855 25.2618 30.658C25.2294 29.8483 25.251 29.0387 25.2618 28.229C25.683 28.3712 26.0826 28.5791 26.5038 28.7323C27.7566 29.2137 29.085 29.5201 30.435 29.5858C31.6878 29.6186 33.0054 29.531 34.107 28.8855C35.1546 28.2947 35.5218 26.7628 34.8738 25.7453C34.4634 25.0997 33.783 24.6949 33.1242 24.3667C31.7202 23.6226 30.1866 23.1631 28.7394 22.4957C27.7998 22.069 26.871 21.5656 26.1798 20.7779C25.6938 20.2198 25.359 19.5305 25.2834 18.7865C25.1106 17.7471 25.2834 16.6201 25.8666 15.7338C26.5362 14.7382 27.627 14.0926 28.7502 13.7644C29.7114 13.458 30.7266 13.3814 31.7202 13.3486C33.1242 13.3486 34.5282 13.5455 35.8782 13.9504C36.3966 14.1145 36.9258 14.2786 37.4118 14.5303C37.0878 15.2634 36.7854 15.9964 36.4506 16.7186C34.6146 15.9527 32.6274 15.4275 30.6294 15.6573C29.7654 15.7448 28.8582 15.9855 28.2534 16.6529C27.735 17.2219 27.6918 18.1081 28.005 18.7975C28.383 19.5305 29.1282 19.9463 29.8302 20.2964C30.8454 20.756 31.8822 21.1608 32.9406 21.5438C34.107 22.0142 35.2842 22.5176 36.2778 23.3163C37.1202 23.9728 37.671 25.0013 37.7682 26.0735C37.887 27.2662 37.671 28.5354 36.9474 29.5092L36.915 29.4873Z" fill="white"/>
</g>
<g id="Group_3">
<path id="Vector_11" d="M61.2257 32.2549C60.8801 32.2987 60.5453 32.3753 60.1889 32.3753C59.8433 32.3753 59.4869 32.2221 59.2709 31.9267C59.0441 31.6203 59.0009 31.2264 59.0117 30.8654C59.0117 29.4539 59.0117 28.0534 59.0117 26.6529C59.7245 26.642 60.4373 26.6529 61.1609 26.6529C61.1609 26.3575 61.1609 26.0621 61.1609 25.7557C60.4481 25.7448 59.7245 25.7557 59.0117 25.7557C59.0117 25.1867 59.0117 24.6178 59.0117 24.0488C58.7849 24.0488 58.5581 24.0488 58.3313 24.0488C58.2017 24.4865 58.0829 24.9351 57.9425 25.3727C57.8993 25.4822 57.8777 25.6135 57.7589 25.6572C57.4565 25.8213 57.1325 25.9308 56.8301 26.0839C56.8301 26.2699 56.8301 26.4669 56.8301 26.6529C57.1757 26.6529 57.5213 26.6529 57.8669 26.6529C57.8669 28.1081 57.8669 29.5524 57.8669 30.9967C57.8453 31.5547 57.9317 32.1346 58.2665 32.5941C58.5689 33.0318 59.0873 33.2616 59.6057 33.3053C60.1241 33.3381 60.6641 33.3381 61.1501 33.1412C61.3013 32.8895 61.2041 32.5394 61.2149 32.2549H61.2257Z" fill="white"/>
<path id="Vector_12" d="M78.2678 32.1018C77.8682 31.7735 77.8682 31.2046 77.8466 30.7231C77.8466 29.3664 77.8466 28.0096 77.8466 26.6529C78.5594 26.642 79.2614 26.6529 79.9742 26.6529C79.9958 26.3575 79.9958 26.0511 79.9742 25.7557C79.2614 25.7557 78.5486 25.7557 77.8466 25.7557C77.8466 25.1867 77.8466 24.6178 77.8466 24.0488C77.6198 24.0488 77.393 24.0488 77.1662 24.0488C77.0474 24.4646 76.9502 24.8804 76.8206 25.2852C76.7774 25.3946 76.745 25.5259 76.6586 25.6135C76.3562 25.8432 75.935 25.8761 75.665 26.1386C75.6542 26.3028 75.665 26.4778 75.665 26.642C76.0106 26.642 76.3562 26.642 76.7018 26.642C76.7018 27.7252 76.7018 28.8193 76.7018 29.9025C76.7126 30.7012 76.6154 31.5437 76.9394 32.2878C77.1662 32.8348 77.717 33.1959 78.2786 33.2834C78.8618 33.36 79.4558 33.3163 80.0174 33.1631C80.0606 32.8677 80.0606 32.5613 80.0498 32.2549C79.4666 32.3206 78.7538 32.5285 78.2678 32.1018Z" fill="white"/>
<path id="Vector_13" d="M55.1337 29.7597C54.4533 29.2236 53.6001 29.0047 52.8225 28.6655C52.4769 28.5124 52.1097 28.3592 51.8289 28.0856C51.5481 27.823 51.5265 27.3416 51.7533 27.0353C52.0017 26.707 52.4337 26.6195 52.8117 26.5757C53.6325 26.4882 54.4317 26.7508 55.2093 27.0024C55.3497 26.6961 55.4901 26.3897 55.5873 26.0724C54.6585 25.6676 53.6325 25.5363 52.6281 25.6347C51.9801 25.7004 51.3213 25.9302 50.8785 26.4225C50.4465 26.9149 50.3925 27.648 50.5977 28.2498C50.8245 28.8078 51.3537 29.1688 51.8829 29.3986C52.6065 29.7597 53.3949 29.9676 54.0861 30.3834C54.3885 30.5694 54.6585 30.8867 54.6261 31.2696C54.6585 31.6635 54.3669 32.0027 54.0321 32.1559C53.5677 32.3856 53.0385 32.3528 52.5309 32.3419C51.8181 32.32 51.1593 32.0574 50.5113 31.7839C50.4789 32.1449 50.4789 32.5169 50.5113 32.878C51.2241 33.1953 52.0125 33.3376 52.8009 33.3047C53.5785 33.3266 54.4101 33.1953 55.0365 32.7029C55.9221 32.0136 55.9977 30.4599 55.1121 29.7378L55.1337 29.7597Z" fill="white"/>
<path id="Vector_14" d="M66.5489 25.7009C65.3933 25.482 64.1837 25.7009 63.1469 26.2589C63.2333 26.5652 63.3521 26.8607 63.5033 27.1342C64.2053 26.8059 64.9721 26.5433 65.7605 26.5871C66.1817 26.5981 66.6353 26.7512 66.8729 27.1232C67.1645 27.5609 67.1429 28.1189 67.1537 28.6332C66.6029 28.666 66.0629 28.6879 65.5121 28.6988C64.7129 28.7645 63.8813 28.8958 63.1901 29.3553C62.6177 29.7383 62.2937 30.4385 62.3261 31.1278C62.2937 31.6749 62.4665 32.2329 62.8337 32.6487C63.1901 33.0535 63.7301 33.2614 64.2593 33.3052C64.8965 33.338 65.5661 33.3271 66.1493 33.0316C66.5597 32.8238 66.8513 32.4517 67.1753 32.1454C67.2401 32.4846 67.3157 32.8238 67.3913 33.1739C67.6721 33.2176 67.9529 33.2176 68.2445 33.1958C68.2445 31.5545 68.2445 29.9024 68.2445 28.2612C68.2661 27.7469 68.2121 27.2217 67.9961 26.7512C67.7477 26.1604 67.1321 25.8322 66.5381 25.7118L66.5489 25.7009ZM66.7433 31.5327C66.3977 32.0688 65.7605 32.3314 65.1449 32.3752C64.6265 32.4189 64.0109 32.3314 63.6869 31.8718C63.3089 31.2591 63.4925 30.34 64.1513 30.0009C65.0585 29.5304 66.1169 29.6288 67.0997 29.5851C67.1537 30.2525 67.1321 30.9746 66.7433 31.5436V31.5327Z" fill="white"/>
<path id="Vector_15" d="M73.2246 25.6908C72.4794 25.8877 71.9394 26.5114 71.5506 27.1569C71.4966 26.6864 71.4858 26.2159 71.421 25.7564C71.1078 25.7564 70.7946 25.7564 70.4814 25.7564C70.4814 28.2401 70.4706 30.7129 70.4814 33.1966C70.8594 33.2404 71.2374 33.2404 71.6154 33.1966C71.6154 31.8289 71.6154 30.4612 71.6154 29.0936C71.637 28.076 72.2742 27.0366 73.2678 26.763C73.6998 26.6208 74.1642 26.7083 74.5962 26.8068C74.661 26.4457 74.715 26.0737 74.7474 25.7017C74.2506 25.6251 73.7214 25.5813 73.2246 25.7017V25.6908Z" fill="white"/>
<path id="Vector_16" d="M95.5804 26.5769C94.8676 25.6797 93.5932 25.4718 92.524 25.7016C91.8976 25.8438 91.39 26.2596 90.9904 26.752C90.9472 26.4128 90.8932 26.0846 90.8392 25.7563C90.526 25.7563 90.2236 25.7563 89.9104 25.7563C89.8888 27.6711 89.9104 29.5858 89.8996 31.5006C89.8996 33.1856 89.878 34.8706 89.9104 36.5555C90.2776 36.5555 90.6556 36.5555 91.0228 36.5555C91.0444 35.9209 91.0228 35.2863 91.0336 34.6517C91.0336 33.853 91.066 33.0543 90.9688 32.2555C91.228 32.5729 91.5304 32.8683 91.8976 33.0433C92.4808 33.3388 93.1504 33.3825 93.7984 33.3278C94.6084 33.2403 95.3968 32.7807 95.7964 32.0477C96.3904 31.0739 96.4444 29.8812 96.3688 28.7762C96.2824 27.9993 96.0664 27.2115 95.5696 26.5879L95.5804 26.5769ZM95.0512 30.855C94.846 31.5334 94.3492 32.1899 93.6364 32.3321C93.1936 32.3868 92.7184 32.3868 92.2972 32.2337C91.8004 32.0695 91.4332 31.6428 91.2712 31.1505C91.0228 30.3955 91.0012 29.5858 91.0552 28.809C91.12 28.251 91.2064 27.6492 91.5844 27.2115C91.8436 26.8833 92.254 26.7192 92.6536 26.6535C93.2584 26.5441 93.9712 26.6097 94.4248 27.0693C94.7488 27.3647 94.9756 27.7805 95.0836 28.2072C95.2996 29.0825 95.2888 30.0016 95.0512 30.866V30.855Z" fill="white"/>
<path id="Vector_17" d="M102.892 30.3397C102.719 29.9458 102.363 29.6613 101.995 29.4644C101.239 29.0377 100.397 28.8188 99.6194 28.4359C99.3926 28.3155 99.1766 28.1514 99.0254 27.9435C98.7878 27.6043 98.8958 27.0791 99.2522 26.8603C99.749 26.5321 100.386 26.543 100.959 26.5977C101.499 26.6415 102.006 26.8713 102.525 27.0026C102.654 26.6962 102.795 26.3898 102.892 26.0616C102.168 25.7662 101.391 25.5802 100.613 25.602C99.857 25.5802 99.0578 25.7005 98.4422 26.1819C97.7942 26.6524 97.6214 27.6153 97.9454 28.3374C98.1938 28.797 98.6258 29.1471 99.101 29.355C99.803 29.6832 100.548 29.902 101.239 30.285C101.434 30.3944 101.628 30.5257 101.769 30.7117C102.071 31.1056 101.985 31.7512 101.563 32.0247C101.034 32.3967 100.354 32.3639 99.7382 32.342C99.0578 32.3092 98.4314 32.0247 97.805 31.7949C97.805 32.145 97.7726 32.5061 97.8266 32.8562C98.5502 33.2611 99.4034 33.3267 100.213 33.3158C100.937 33.3267 101.693 33.1845 102.298 32.7578C102.708 32.4623 103 31.9809 103.032 31.4667C103.054 31.0837 103.065 30.6789 102.892 30.3288V30.3397Z" fill="white"/>
<path id="Vector_18" d="M86.496 25.7445C86.496 27.156 86.496 28.5565 86.496 29.9679C86.4528 30.6682 86.3232 31.456 85.7616 31.9265C85.254 32.3532 84.5412 32.397 83.904 32.3422C83.5368 32.2875 83.148 32.1562 82.932 31.828C82.608 31.3685 82.5648 30.7776 82.5864 30.2415C82.5864 28.7425 82.608 27.2326 82.5756 25.7336C82.1976 25.7336 81.8196 25.7336 81.4416 25.7336C81.4524 27.0466 81.4416 28.3705 81.4416 29.6835C81.4416 30.34 81.3876 31.0074 81.5604 31.642C81.69 32.1781 82.0032 32.6924 82.5 32.955C83.1588 33.327 83.9472 33.3489 84.6816 33.2832C85.4052 33.1957 86.0748 32.8127 86.55 32.2438C86.604 32.5501 86.658 32.8565 86.7012 33.1519C87.0144 33.2066 87.3276 33.1957 87.6408 33.1519C87.6516 30.6791 87.6624 28.1954 87.6408 25.7227C87.2628 25.7227 86.8848 25.7227 86.5068 25.7227L86.496 25.7445Z" fill="white"/>
</g>
</g>
<defs>
<clipPath id="clip0_310_1107">
<rect width="108" height="43" fill="white"/>
</clipPath>
</defs>
</svg>
