<svg width="128" height="50" viewBox="0 0 128 50" fill="none" xmlns="http://www.w3.org/2000/svg">
<g id="Frame 164792">
<g id="Group 1000002342">
<path id="Vector" d="M27.6825 13.332H29.6533C30.8461 13.1574 32.0735 13.3145 33.1972 13.7858C34.5975 14.641 35.6174 16.0025 36.0323 17.6083C36.2282 18.1668 36.5625 18.3472 37.035 18.1494H37.5882V11.5167H19.0389V12.6861H19.7995C20.4737 12.6861 21.0961 12.9829 21.5283 13.5065C22.237 14.6585 22.3581 15.9501 22.3581 22.6701C22.3581 29.809 22.2025 31.5544 21.5283 32.4446C21.1825 32.9159 20.6639 33.1951 20.0934 33.2126C19.0389 33.4046 19.0389 33.3871 19.0389 33.8584C18.987 34.0155 18.987 34.19 19.0389 34.3471H30.7424C30.898 34.0329 30.898 33.6664 30.7424 33.3522C30.4658 33.265 30.1719 33.2126 29.878 33.1777C29.5669 33.1428 29.2557 33.073 28.9445 32.9857C28.0629 32.3224 27.5788 31.2402 27.6825 30.1406C27.5097 28.9886 27.4232 26.8766 27.4232 25.1312V23.7523H28.1147C28.9791 23.7174 29.8435 23.8221 30.6733 24.0315C31.4858 24.5377 32.0217 25.3755 32.16 26.3355L32.3155 26.8766H33.3701V19.1443H32.402L32.2464 19.8948C32.1081 20.8723 31.5376 21.7275 30.6733 22.1988C30.2584 22.321 29.8262 22.3559 29.4113 22.2861H27.4232V20.401C27.4232 18.4461 27.527 14.3269 27.5961 13.681L27.6825 13.332ZM108.587 27.1733C107.775 25.8468 106.495 24.8694 105.009 24.433C103.868 24.0664 102.813 23.473 101.914 22.6875C101.499 22.2861 101.309 21.7101 101.413 21.1341C101.413 20.5756 101.638 20.0519 102.018 19.6679C102.554 19.1094 103.349 18.8825 104.092 19.0919C105.631 19.5283 106.807 20.8025 107.152 22.3734C107.429 23.1588 107.463 23.1588 107.965 22.9494L108.276 22.8272V18.481L108.051 18.3763C106.357 17.7654 104.542 17.521 102.744 17.6432C101.188 17.6781 99.7188 18.3065 98.5951 19.3887C97.5751 20.3661 97.0219 21.745 97.0911 23.1588C97.0911 24.2235 97.5233 25.2534 98.2666 26.0213C99.0964 26.8417 100.099 27.4352 101.205 27.7668C103.885 28.8315 104.663 29.5122 104.663 30.7515C104.68 31.8337 103.971 32.7762 102.934 33.038C102.329 33.1777 101.707 33.1777 101.102 33.038C99.494 32.4097 98.3012 31.0308 97.869 29.3552L97.6443 28.7966H97.3331C97.1775 28.7966 97.0392 28.849 96.9009 28.9013H96.7281V33.8584H97.0219C98.1975 34.2424 99.3903 34.5217 100.618 34.6613H102.346C103.09 34.7137 103.85 34.6613 104.576 34.4519C106.461 34.1028 107.999 32.7762 108.656 30.961C108.864 30.4548 108.967 29.9312 108.967 29.3901C109.037 28.6221 108.898 27.8715 108.587 27.1733ZM92.3025 18.1494C90.2107 17.2592 87.8424 17.3116 85.7852 18.3065C83.8663 19.2665 82.4142 20.9945 81.8264 23.0715C81.4461 24.1886 81.2905 25.3755 81.3596 26.5624C81.3596 27.2083 81.3942 27.8541 81.5152 28.4824C82.0857 31.6766 84.5578 34.1551 87.7214 34.7311C88.724 34.8533 89.744 34.8533 90.7466 34.7311C91.7839 34.5391 92.7865 34.1551 93.6855 33.5966C94.4288 33.1777 95.0512 32.5842 95.5179 31.8511C95.4661 31.6242 95.3105 31.4322 95.103 31.3101C94.9129 31.3799 94.7227 31.4846 94.5499 31.6068C93.6855 32.1828 92.6828 32.462 91.6456 32.4271C90.2626 32.5144 88.9142 31.9908 87.9634 30.961C87.6004 30.6293 87.3065 30.2279 87.0817 29.7741C86.5458 28.6919 86.2519 27.4875 86.2347 26.2832V25.6024H95.8118V25.2534C95.8291 24.9043 95.8291 24.5552 95.8118 24.2061C95.8118 21.6926 94.4634 19.3887 92.3025 18.1494ZM87.4793 24.1886H86.2692V23.1588C86.6668 20.5232 87.6522 18.9523 88.8623 18.9523C90.0724 18.9523 90.5911 20.5057 90.8158 23.3508V24.1537H89.7786L87.4793 24.1886ZM62.6202 17.5734C62.0151 17.5559 61.4274 17.6781 60.8915 17.9399C59.7159 18.5159 58.7824 19.4585 58.2119 20.6454L57.9872 21.0643V17.5734H57.9008C57.6933 17.5734 51.297 18.865 51.0896 18.9523C50.8821 19.0396 50.9513 19.057 50.9513 19.3712C50.9513 19.6854 50.9513 19.7377 51.0896 19.7552L51.7638 19.8948C52.1441 19.8948 52.5071 20.0868 52.7319 20.401C53.164 20.977 53.2505 21.9894 53.2505 26.3006C53.3369 28.2381 53.2505 30.193 53.0085 32.113C52.8874 32.7064 52.4034 33.1602 51.8156 33.2475L51.2279 33.3697H51.0031V33.8584C50.934 34.0155 50.934 34.2075 51.0031 34.3646H60.6667V33.8584C60.7013 33.6839 60.7013 33.5268 60.6667 33.3522C60.079 33.3348 59.5085 33.2475 58.938 33.1253C58.2984 32.7937 57.9353 32.0955 58.0218 31.3799C57.8835 30.3675 57.8143 27.4003 57.8489 25.1312C57.8835 22.8621 57.8489 22.7225 58.0391 22.5654C58.6095 22.1115 59.3356 21.8846 60.0617 21.9195C60.7532 21.9195 61.4274 22.1115 62.0324 22.4257C62.2399 22.5479 62.4646 22.6352 62.7066 22.6875C62.7066 22.6875 64.4354 18.4636 64.4354 18.2716C63.9859 17.7479 63.3117 17.4861 62.6202 17.5734ZM50.9686 24.9043C50.8475 22.3734 49.5164 20.0519 47.4074 18.6905C44.9007 17.329 41.8927 17.2418 39.3169 18.4636C37.519 19.4236 36.1533 21.0468 35.531 23.0017C34.8741 25.1835 34.8741 27.5224 35.531 29.7042C35.8767 30.8911 36.5164 31.9908 37.3807 32.8635C38.4698 33.9282 39.8701 34.6264 41.3741 34.8184C42.3422 34.9057 43.3103 34.9057 44.2784 34.8184C44.6414 34.766 44.9871 34.6962 45.3329 34.5915C48.2026 33.7886 50.3462 31.3624 50.8475 28.3952C51.0204 27.2432 51.055 26.0737 50.9686 24.9043ZM43.777 33.6315C42.0483 34.1551 40.7518 32.462 40.3196 28.9013C40.164 27.0337 40.164 25.1661 40.3196 23.2985C40.6653 20.4359 41.547 18.9872 42.9127 18.9872C43.4659 18.9523 44.0191 19.1967 44.3648 19.633C45.5231 20.8025 46.0935 23.1239 46.0935 26.6148C46.2318 28.5872 45.9379 30.577 45.1946 32.4097C44.8661 32.9508 44.3648 33.3522 43.777 33.5442V33.6315ZM74.8942 17.9225C74.4101 17.8527 73.9088 17.8527 73.4248 17.9225C72.4912 17.9225 71.5577 18.1319 70.7107 18.5159L70.1748 18.7428V14.9552C70.2612 13.681 70.2612 12.3894 70.1748 11.1152C69.9673 11.1152 63.3636 12.3894 63.2598 12.4418C63.208 12.564 63.208 12.721 63.2598 12.8432C63.2598 13.2098 63.2598 13.1923 64.0378 13.3669C64.2625 13.4192 64.4699 13.5065 64.6601 13.6112C65.0058 13.9254 65.2306 14.3618 65.2997 14.8156C65.4899 16.1421 65.559 17.4861 65.4899 18.8301V34.1551L65.9566 34.2599C66.6481 34.4169 68.6016 34.7486 69.2412 34.8184C70.5205 34.9231 71.7998 34.9231 73.079 34.8184C75.966 34.5217 78.4554 32.6366 79.5445 29.9137C79.8556 29.0584 80.0804 28.1682 80.2014 27.2606C80.3051 26.0388 80.2705 24.7995 80.0804 23.5777C79.7001 20.785 77.6256 18.5159 74.8942 17.9225ZM70.3649 33.3348C70.3649 33.1079 70.192 25.4628 70.2266 22.4083V20.017L70.7279 19.8948C71.0737 19.8425 71.4021 19.8425 71.7479 19.8948C72.1282 19.8599 72.4912 19.9472 72.8197 20.1392C74.1335 21.0468 74.946 22.513 75.0498 24.1188C75.1708 25.393 75.1708 26.6672 75.0498 27.9413C74.946 29.7915 74.2373 31.5544 73.0444 32.9508C72.6987 33.2824 72.2838 33.4919 71.817 33.5791C71.4713 33.649 71.1083 33.649 70.7625 33.5791C70.4341 33.5791 70.4341 33.4744 70.4341 33.3348H70.3649Z" fill="white"/>
</g>
</g>
</svg>
