<svg width="213" height="50" viewBox="0 0 213 50" fill="none" xmlns="http://www.w3.org/2000/svg">
<g id="Frame 164793">
<g id="Group 1000002343">
<path id="Vector" d="M127.112 31.3168H119.286V17.7723H127.112V20.0891H122.077V23.0297H126.778V25.4356H122.077V28.9109H127.112V31.3168ZM161.844 31.3168H151.561V29.4158L158.204 20.0891H151.773V17.7723H161.631V19.5545L154.988 28.8812H161.844V31.3168ZM172.339 31.3168H164.301V17.7723H172.339V20.0891H167.182V23.0297H171.884V25.4356H167.182V28.9109H172.339V31.3168ZM189.083 17.7723V31.3168H197V28.9109H191.965V25.4356H196.666V23.0297H191.965V20.0891H197V17.7723H189.083ZM85.1913 17.7723H88.073V20.5941H85.1913V17.7723ZM81.1267 17.7723H84.0083V20.5941H81.1267V17.7723ZM42.3303 14L37.841 35H40.7227L45.3333 14H42.3303ZM46.7287 14L42.2393 35H45.121L49.7317 14H46.7287ZM15 14V35H36.4457L40.935 14H15ZM57.0117 23.6535H62.4717V30.6931C61.6223 30.901 60.864 31.1089 60.0147 31.3168C59.1653 31.4356 58.407 31.5248 57.5577 31.4356C55.7377 31.5545 54.0087 30.901 52.7347 29.6535C51.5517 28.198 51.0057 26.297 51.127 24.5149C51.0057 22.6139 51.764 20.7426 53.0683 19.3762C54.5547 18.1287 56.405 17.4752 58.316 17.5941C59.7113 17.5941 61.1067 17.9208 62.3807 18.4257L61.41 20.7426C60.4393 20.2079 59.3777 20 58.316 20C57.133 20 56.0713 20.4158 55.222 21.2475C54.3727 22.198 54.039 23.3564 54.039 24.604C53.9177 25.7624 54.2513 27.0099 55.0097 27.9604C55.6467 28.7921 56.6173 29.2079 57.679 29.1188C58.316 29.1188 58.953 29 59.499 28.9109V26.0891H56.8297V23.6832H57.0117V23.6535ZM68.053 23.7426H69.0237C69.782 23.7426 70.419 23.6238 71.056 23.3267C71.4807 23 71.693 22.495 71.693 21.9604C71.693 21.4257 71.4807 20.9208 71.056 20.5941C70.419 20.2673 69.6607 20.1782 69.0237 20.1782H68.1743L68.053 23.7426ZM68.053 26.0594V31.198H65.1713V17.7723H69.145C70.6313 17.6535 72.0267 17.9802 73.331 18.7228C74.3017 19.4653 74.7263 20.6238 74.7263 21.7525C74.7263 22.495 74.514 23.2079 74.0893 23.8614C73.6647 24.5149 72.9063 25.0198 72.148 25.3168C74.1803 28.3465 75.5757 30.2475 76.2127 31.198H72.9973L69.6607 26.0594H68.053ZM103.118 31.3168H99.357L93.351 21.1287H93.2297C93.351 22.9109 93.442 24.1584 93.442 25.0198V31.4356H90.8637V17.802H94.625L100.631 27.9901H100.752C100.631 26.2079 100.631 24.9604 100.631 24.3069V17.802H103.3L103.118 31.3168ZM114.16 24.3663C114.16 21.5446 112.886 20.0594 110.186 20.0594H108.578V28.8812H109.852C112.764 28.8812 114.16 27.4257 114.16 24.3663ZM117.132 24.3663C117.254 26.2673 116.586 28.1386 115.191 29.505C113.583 30.7525 111.642 31.4059 109.61 31.2871H105.636V17.7426H110.034C111.976 17.6238 113.796 18.2772 115.282 19.5248C116.617 20.802 117.254 22.495 117.132 24.3663ZM132.36 23.7426H133.33C134.089 23.7426 134.726 23.6238 135.363 23.3267C135.787 23 136 22.495 136 21.9604C136 21.4257 135.787 20.9208 135.363 20.5941C134.726 20.2673 133.967 20.1782 133.33 20.1782H132.481L132.36 23.7426ZM132.36 26.0594V31.198H129.478V17.7723H133.452C134.938 17.6535 136.333 17.9802 137.638 18.7228C138.608 19.4653 139.033 20.6238 139.033 21.7525C139.033 22.495 138.821 23.2079 138.396 23.8614C137.971 24.4851 137.213 25.0198 136.455 25.3168C138.487 28.3465 139.882 30.2475 140.519 31.198H137.304L133.967 26.0594H132.36ZM150.256 27.5149C150.378 28.6733 149.832 29.7129 148.982 30.3366C147.921 31.0792 146.616 31.4951 145.221 31.3762C143.826 31.3762 142.552 31.1683 141.247 30.5446V27.9307C142.006 28.2574 142.734 28.5545 143.613 28.7624C144.159 28.8812 144.796 28.9703 145.433 29.0891C145.979 29.0891 146.495 28.9703 146.92 28.7624C147.253 28.5545 147.466 28.1386 147.466 27.7228C147.466 27.5149 147.344 27.1881 147.253 26.9802L146.616 26.3564C146.07 26.0297 145.433 25.7327 144.796 25.4059C144.159 25.0792 143.522 24.7822 142.855 24.2475C142.43 23.9208 142.097 23.505 141.884 23C141.551 22.4653 141.46 21.9604 141.551 21.3069C141.551 20.2673 141.975 19.198 142.734 18.4851C143.704 17.7426 144.887 17.3267 146.161 17.4455C146.92 17.4455 147.557 17.5644 148.194 17.7723C148.952 17.9802 149.589 18.1881 150.226 18.5149L149.255 20.7129C148.618 20.505 148.072 20.297 147.435 20.0891C147.011 19.9703 146.465 19.8812 146.04 19.8812C145.615 19.8812 145.191 20 144.766 20.2079C144.432 20.4158 144.341 20.8317 144.341 21.1584C144.341 21.3663 144.463 21.5743 144.554 21.7822C144.675 21.9901 144.887 22.198 145.1 22.3168C145.737 22.6436 146.283 23.0594 146.92 23.2673C147.89 23.6832 148.861 24.3069 149.589 25.0495C150.165 25.8515 150.378 26.6832 150.256 27.5149Z" fill="white"/>
<path id="Vector_2" d="M85.1913 21.8705V26.0586C85.3127 26.8903 85.07 27.7517 84.5543 28.3754C84.0083 28.9101 83.2803 29.118 82.522 29.118C81.7637 29.2368 80.9143 28.9101 80.3683 28.3754C79.8223 27.7517 79.61 26.92 79.7313 26.0586V17.7715H76.8497V26.4745C76.7283 27.8408 77.2743 29.2071 78.336 30.1576C79.519 31.1081 81.0053 31.6131 82.522 31.524C83.5837 31.524 84.6757 31.316 85.616 30.9002C86.4653 30.4844 87.1023 29.9497 87.6483 29.118C88.073 28.2863 88.4067 27.4249 88.4067 26.5042V21.7814L85.1913 21.8705ZM186.717 31.316H182.956L176.95 21.1279H176.828C176.95 22.9101 177.041 24.1576 177.041 25.019V31.4349H174.371V17.8012H178.133L184.139 27.9893H184.26C184.139 26.2071 184.139 24.9596 184.139 24.3061V17.8012H186.808L186.717 31.316Z" fill="white"/>
</g>
</g>
</svg>
