<svg width="121" height="120" viewBox="0 0 121 120" fill="none" xmlns="http://www.w3.org/2000/svg">
<g id="Frame 164887">
<g id="Group 1000002326">
<g id="Group 1000002327">
<g id="Vector 2" filter="url(#filter0_f_309_966)">
<path d="M102.5 94H22.5L62.1639 25L102.5 94Z" fill="url(#paint0_radial_309_966)"/>
</g>
<path id="Vector 3" d="M108 26.5L102.238 26.1295L104.798 31.3044L108 26.5ZM14.2217 73.4482L15.1255 73.001L14.6821 72.1047L13.7783 72.5518L14.2217 73.4482ZM16.9332 72.1068L18.7409 71.2126L18.2975 70.3163L16.4898 71.2105L16.9332 72.1068ZM20.5486 70.3184L22.3563 69.4241L21.9129 68.5278L20.1052 69.422L20.5486 70.3184ZM24.164 68.5299L25.9717 67.6357L25.5283 66.7393L23.7206 67.6336L24.164 68.5299ZM27.7794 66.7414L29.5871 65.8472L29.1437 64.9509L27.336 65.8451L27.7794 66.7414ZM31.3948 64.953L33.2025 64.0587L32.7591 63.1624L30.9514 64.0566L31.3948 64.953ZM35.0102 63.1645L36.8179 62.2703L36.3745 61.374L34.5668 62.2682L35.0102 63.1645ZM38.6255 61.376L40.4332 60.4818L39.9898 59.5855L38.1821 60.4797L38.6255 61.376ZM42.2409 59.5876L44.0486 58.6934L43.6052 57.797L41.7975 58.6913L42.2409 59.5876ZM45.8563 57.7991L47.664 56.9049L47.2206 56.0086L45.4129 56.9028L45.8563 57.7991ZM49.4717 56.0107L51.2794 55.1164L50.836 54.2201L49.0283 55.1143L49.4717 56.0107ZM53.0871 54.2222L54.8948 53.328L54.4514 52.4316L52.6437 53.3259L53.0871 54.2222ZM56.7025 52.4337L58.5102 51.5395L58.0668 50.6432L56.2591 51.5374L56.7025 52.4337ZM60.3179 50.6453L62.1255 49.751L61.6822 48.8547L59.8745 49.7489L60.3179 50.6453ZM63.9332 48.8568L65.7409 47.9626L65.2975 47.0663L63.4898 47.9605L63.9332 48.8568ZM67.5486 47.0684L69.3563 46.1741L68.9129 45.2778L67.1052 46.172L67.5486 47.0684ZM71.164 45.2799L72.9717 44.3857L72.5283 43.4893L70.7206 44.3836L71.164 45.2799ZM74.7794 43.4914L76.5871 42.5972L76.1437 41.7009L74.336 42.5951L74.7794 43.4914ZM78.3948 41.703L80.2025 40.8087L79.7591 39.9124L77.9514 40.8066L78.3948 41.703ZM82.0102 39.9145L83.8178 39.0203L83.3745 38.124L81.5668 39.0182L82.0102 39.9145ZM85.6255 38.1261L87.4332 37.2318L86.9898 36.3355L85.1821 37.2297L85.6255 38.1261ZM89.2409 36.3376L91.0486 35.4434L90.6052 34.547L88.7975 35.4413L89.2409 36.3376ZM92.8563 34.5491L94.664 33.6549L94.2206 32.7586L92.4129 33.6528L92.8563 34.5491ZM96.4717 32.7607L98.2794 31.8664L97.836 30.9701L96.0283 31.8643L96.4717 32.7607ZM100.087 30.9722L101.895 30.078L101.451 29.1817L99.6437 30.0759L100.087 30.9722ZM103.702 29.1838L105.51 28.2895L105.067 27.3932L103.259 28.2874L103.702 29.1838Z" fill="white"/>
</g>
</g>
</g>
<defs>
<filter id="filter0_f_309_966" x="17.5" y="20" width="90" height="79" filterUnits="userSpaceOnUse" color-interpolation-filters="sRGB">
<feFlood flood-opacity="0" result="BackgroundImageFix"/>
<feBlend mode="normal" in="SourceGraphic" in2="BackgroundImageFix" result="shape"/>
<feGaussianBlur stdDeviation="2.5" result="effect1_foregroundBlur_309_966"/>
</filter>
<radialGradient id="paint0_radial_309_966" cx="0" cy="0" r="1" gradientUnits="userSpaceOnUse" gradientTransform="translate(102.5 19.7292) rotate(139.448) scale(184.255 149.506)">
<stop offset="0.0577707" stop-color="#FC466B"/>
<stop offset="0.491536" stop-color="#3F5EFB" stop-opacity="0.37"/>
</radialGradient>
</defs>
</svg>
