<svg width="121" height="120" viewBox="0 0 121 120" fill="none" xmlns="http://www.w3.org/2000/svg">
<g id="Frame 164887">
<g id="Group 1000002328">
<g id="Ellipse 371" filter="url(#filter0_f_309_973)">
<circle cx="70.1437" cy="32.6665" r="16.0596" transform="rotate(168.068 70.1437 32.6665)" fill="url(#paint0_radial_309_973)"/>
</g>
<g id="Ellipse 372" filter="url(#filter1_f_309_973)">
<circle cx="25.2434" cy="50.4287" r="16" transform="rotate(61.4071 25.2434 50.4287)" fill="url(#paint1_radial_309_973)"/>
</g>
<g id="Ellipse 373" filter="url(#filter2_f_309_973)">
<circle cx="66.8764" cy="80.8775" r="16.0596" transform="rotate(-41.9769 66.8764 80.8775)" fill="url(#paint2_radial_309_973)"/>
</g>
</g>
<path id="Vector 10" d="M45.7179 55.783L41.6121 51.724L40.1498 57.3093L45.7179 55.783ZM23.0072 50.354L23.9482 50.6004L24.2015 49.633L23.2605 49.3866L23.0072 50.354ZM25.8302 51.0931L27.7122 51.5858L27.9655 50.6184L26.0835 50.1257L25.8302 51.0931ZM29.5942 52.0785L31.4762 52.5713L31.7295 51.6039L29.8475 51.1112L29.5942 52.0785ZM33.3582 53.064L35.2402 53.5567L35.4935 52.5893L33.6115 52.0966L33.3582 53.064ZM37.1222 54.0495L39.0042 54.5422L39.2575 53.5748L37.3755 53.0821L37.1222 54.0495ZM40.8862 55.0349L42.7682 55.5276L43.0215 54.5603L41.1395 54.0675L40.8862 55.0349Z" fill="white"/>
<path id="Vector 11" d="M56.3238 62.7523L56.353 68.5257L61.3383 65.6138L56.3238 62.7523ZM68.5301 82.6585L68.0395 81.8185L67.176 82.3229L67.6666 83.1628L68.5301 82.6585ZM67.0583 80.1387L66.0771 78.4588L65.2136 78.9632L66.1948 80.643L67.0583 80.1387ZM65.0959 76.7789L64.1147 75.0991L63.2512 75.6035L64.2324 77.2833L65.0959 76.7789ZM63.1335 73.4192L62.1522 71.7394L61.2888 72.2437L62.27 73.9236L63.1335 73.4192ZM61.171 70.0595L60.1898 68.3796L59.3263 68.884L60.3075 70.5639L61.171 70.0595ZM59.2086 66.6998L58.2274 65.0199L57.3639 65.5243L58.3451 67.2041L59.2086 66.6998Z" fill="white"/>
<path id="Vector 12" d="M57.7477 50.1126L62.8187 47.3524L57.8928 44.3409L57.7477 50.1126ZM69.4981 29.9339L68.9907 30.7638L69.8439 31.2854L70.3513 30.4555L69.4981 29.9339ZM67.976 32.4236L66.9612 34.0835L67.8144 34.6051L68.8292 32.9453L67.976 32.4236ZM65.9465 35.7433L64.9317 37.4031L65.7849 37.9247L66.7997 36.2649L65.9465 35.7433ZM63.917 39.0629L62.9022 40.7228L63.7554 41.2444L64.7702 39.5845L63.917 39.0629ZM61.8875 42.3826L60.8727 44.0424L61.7259 44.564L62.7407 42.9042L61.8875 42.3826ZM59.858 45.7022L58.8432 47.362L59.6964 47.8836L60.7112 46.2238L59.858 45.7022Z" fill="white"/>
</g>
<defs>
<filter id="filter0_f_309_973" x="49.0811" y="11.6035" width="42.126" height="42.125" filterUnits="userSpaceOnUse" color-interpolation-filters="sRGB">
<feFlood flood-opacity="0" result="BackgroundImageFix"/>
<feBlend mode="normal" in="SourceGraphic" in2="BackgroundImageFix" result="shape"/>
<feGaussianBlur stdDeviation="2.5" result="effect1_foregroundBlur_309_973"/>
</filter>
<filter id="filter1_f_309_973" x="4.24023" y="29.4258" width="42.0059" height="42.0059" filterUnits="userSpaceOnUse" color-interpolation-filters="sRGB">
<feFlood flood-opacity="0" result="BackgroundImageFix"/>
<feBlend mode="normal" in="SourceGraphic" in2="BackgroundImageFix" result="shape"/>
<feGaussianBlur stdDeviation="2.5" result="effect1_foregroundBlur_309_973"/>
</filter>
<filter id="filter2_f_309_973" x="45.8164" y="59.8184" width="42.1201" height="42.1191" filterUnits="userSpaceOnUse" color-interpolation-filters="sRGB">
<feFlood flood-opacity="0" result="BackgroundImageFix"/>
<feBlend mode="normal" in="SourceGraphic" in2="BackgroundImageFix" result="shape"/>
<feGaussianBlur stdDeviation="2.5" result="effect1_foregroundBlur_309_973"/>
</filter>
<radialGradient id="paint0_radial_309_973" cx="0" cy="0" r="1" gradientUnits="userSpaceOnUse" gradientTransform="translate(86.2033 14.1534) rotate(135.228) scale(79.176 65.0241)">
<stop offset="0.0577707" stop-color="#FC466B"/>
<stop offset="0.491536" stop-color="#3F5EFB" stop-opacity="0.37"/>
</radialGradient>
<radialGradient id="paint1_radial_309_973" cx="0" cy="0" r="1" gradientUnits="userSpaceOnUse" gradientTransform="translate(41.2434 31.9842) rotate(135.228) scale(78.8823 64.7829)">
<stop offset="0.0577707" stop-color="#FC466B"/>
<stop offset="0.491536" stop-color="#3F5EFB" stop-opacity="0.37"/>
</radialGradient>
<radialGradient id="paint2_radial_309_973" cx="0" cy="0" r="1" gradientUnits="userSpaceOnUse" gradientTransform="translate(82.9359 62.3644) rotate(135.228) scale(79.176 65.0241)">
<stop offset="0.0577707" stop-color="#FC466B"/>
<stop offset="0.491536" stop-color="#3F5EFB" stop-opacity="0.37"/>
</radialGradient>
</defs>
</svg>
