<svg width="121" height="120" viewBox="0 0 121 120" fill="none" xmlns="http://www.w3.org/2000/svg">
<g id="Frame 164903">
<g id="Vector 8" filter="url(#filter0_f_309_952)">
<path d="M24.5 69.7143V49.2857L97.5 28V91L24.5 69.7143Z" fill="url(#paint0_radial_309_952)"/>
</g>
<path id="Vector 9" d="M110 59L105 56.1133L105 61.8868L110 59ZM36 59.5L36.9737 59.5L36.9737 58.5L36 58.5L36 59.5ZM38.9211 59.5L40.8684 59.5L40.8684 58.5L38.9211 58.5L38.9211 59.5ZM42.8158 59.5L44.7632 59.5L44.7632 58.5L42.8158 58.5L42.8158 59.5ZM46.7105 59.5L48.6579 59.5L48.6579 58.5L46.7105 58.5L46.7105 59.5ZM50.6053 59.5L52.5526 59.5L52.5526 58.5L50.6053 58.5L50.6053 59.5ZM54.5 59.5L56.4474 59.5L56.4474 58.5L54.5 58.5L54.5 59.5ZM58.3947 59.5L60.3421 59.5L60.3421 58.5L58.3947 58.5L58.3947 59.5ZM62.2895 59.5L64.2368 59.5L64.2368 58.5L62.2895 58.5L62.2895 59.5ZM66.1842 59.5L68.1316 59.5L68.1316 58.5L66.1842 58.5L66.1842 59.5ZM70.0789 59.5L72.0263 59.5L72.0263 58.5L70.0789 58.5L70.0789 59.5ZM73.9737 59.5L75.9211 59.5L75.9211 58.5L73.9737 58.5L73.9737 59.5ZM77.8684 59.5L79.8158 59.5L79.8158 58.5L77.8684 58.5L77.8684 59.5ZM81.7632 59.5L83.7105 59.5L83.7105 58.5L81.7632 58.5L81.7632 59.5ZM85.6579 59.5L87.6053 59.5L87.6053 58.5L85.6579 58.5L85.6579 59.5ZM89.5526 59.5L91.5 59.5L91.5 58.5L89.5526 58.5L89.5526 59.5ZM93.4474 59.5L95.3947 59.5L95.3947 58.5L93.4474 58.5L93.4474 59.5ZM97.3421 59.5L99.2895 59.5L99.2895 58.5L97.3421 58.5L97.3421 59.5ZM101.237 59.5L103.184 59.5L103.184 58.5L101.237 58.5L101.237 59.5ZM105.132 59.5L107.079 59.5L107.079 58.5L105.132 58.5L105.132 59.5Z" fill="white"/>
</g>
<defs>
<filter id="filter0_f_309_952" x="19.5" y="23" width="83" height="73" filterUnits="userSpaceOnUse" color-interpolation-filters="sRGB">
<feFlood flood-opacity="0" result="BackgroundImageFix"/>
<feBlend mode="normal" in="SourceGraphic" in2="BackgroundImageFix" result="shape"/>
<feGaussianBlur stdDeviation="2.5" result="effect1_foregroundBlur_309_952"/>
</filter>
<radialGradient id="paint0_radial_309_952" cx="0" cy="0" r="1" gradientUnits="userSpaceOnUse" gradientTransform="translate(-6.50885 59.5) scale(153.106 124.552)">
<stop offset="0.0577707" stop-color="#FC466B"/>
<stop offset="0.718737" stop-color="#3F5EFB" stop-opacity="0.37"/>
</radialGradient>
</defs>
</svg>
