<svg width="121" height="120" viewBox="0 0 121 120" fill="none" xmlns="http://www.w3.org/2000/svg">
<g id="Frame 164887">
<g id="Ellipse 361" filter="url(#filter0_f_309_983)">
<circle cx="34.5002" cy="75.0007" r="18" transform="rotate(-27.3102 34.5002 75.0007)" fill="url(#paint0_radial_309_983)"/>
</g>
<g id="Ellipse 362" filter="url(#filter1_f_309_983)">
<circle cx="76.5001" cy="45.9994" r="18" transform="rotate(130.429 76.5001 45.9994)" fill="url(#paint1_radial_309_983)"/>
</g>
<path id="Vector" d="M107 73.23L102 70.3432V76.1168L107 73.23ZM92.56 64.33L93.0542 64.4061L93.06 64.3683V64.33H92.56ZM47.2 47.85H47.7V47.8492L47.2 47.85ZM25 80.81V79.7797H24V80.81H25ZM25 77.7191V75.6584H24V77.7191H25ZM25 73.5978V71.5372H24V73.5978H25ZM25 69.4766V67.4159H24V69.4766H25ZM25 65.3553V63.2947H24V65.3553H25ZM25 61.2341V59.1734H24V61.2341H25ZM25 57.1128V55.0522H24V57.1128H25ZM25 52.9916V50.9309H24V52.9916H25ZM25 48.8703V47.84H24V48.8703H25ZM25 47.84C25 47.4811 25.0175 47.1264 25.0515 46.7766L24.0562 46.6797C24.019 47.0616 24 47.4486 24 47.84H25ZM25.4644 44.6925C25.6722 44.0074 25.946 43.3508 26.2786 42.7303L25.3972 42.2579C25.0339 42.9359 24.7346 43.6534 24.5075 44.4023L25.4644 44.6925ZM27.4611 40.9643C27.912 40.4157 28.4157 39.912 28.9643 39.4611L28.3294 38.6885C27.7305 39.1807 27.1807 39.7305 26.6885 40.3294L27.4611 40.9643ZM30.7303 38.2786C31.3508 37.946 32.0074 37.6722 32.6925 37.4644L32.4023 36.5075C31.6534 36.7346 30.9359 37.0339 30.2579 37.3972L30.7303 38.2786ZM34.7766 37.0515C35.1264 37.0175 35.4811 37 35.84 37V36C35.4486 36 35.0616 36.019 34.6797 36.0562L34.7766 37.0515ZM35.84 37C36.1994 37 36.5546 37.0174 36.9048 37.0515L37.0016 36.0562C36.6193 36.019 36.2318 36 35.84 36V37ZM38.9918 37.4644C39.6779 37.6722 40.3353 37.9462 40.9567 38.2789L41.4288 37.3973C40.7499 37.0338 40.0315 36.7345 39.2816 36.5073L38.9918 37.4644ZM42.7252 39.4623C43.2746 39.9136 43.779 40.4178 44.2306 40.967L45.003 40.332C44.5101 39.7324 43.9596 39.1822 43.3599 38.6896L42.7252 39.4623ZM45.4151 42.7349C45.7483 43.3561 46.0228 44.0134 46.2314 44.6993L47.1881 44.4085C46.9603 43.6589 46.6603 42.9408 46.2964 42.2623L45.4151 42.7349ZM46.6469 46.786C46.6814 47.1362 46.6994 47.4914 46.7 47.8508L47.7 47.8492C47.6994 47.4575 47.6798 47.07 47.642 46.6878L46.6469 46.786ZM46.7 47.85V48.8654H47.7V47.85H46.7ZM46.7 50.8963V52.9271H47.7V50.8963H46.7ZM46.7 54.9579V56.9888H47.7V54.9579H46.7ZM46.7 59.0196V61.0504H47.7V59.0196H46.7ZM46.7 63.0813V65.1121H47.7V63.0813H46.7ZM46.7 67.1429V69.1738H47.7V67.1429H46.7ZM46.7 71.2046V72.22H47.7V71.2046H46.7ZM46.7 72.22C46.7 72.6114 46.719 72.9984 46.7562 73.3804L47.7515 73.2834C47.7175 72.9336 47.7 72.5789 47.7 72.22H46.7ZM47.2075 75.6577C47.4346 76.4066 47.7339 77.1241 48.0972 77.8021L48.9786 77.3297C48.646 76.7092 48.3722 76.0526 48.1644 75.3675L47.2075 75.6577ZM49.3885 79.7306C49.8807 80.3295 50.4305 80.8793 51.0294 81.3715L51.6643 80.5989C51.1157 80.148 50.612 79.6443 50.1611 79.0957L49.3885 79.7306ZM52.9579 82.6628C53.6359 83.0261 54.3534 83.3254 55.1023 83.5525L55.3925 82.5956C54.7074 82.3878 54.0508 82.114 53.4303 81.7814L52.9579 82.6628ZM57.3797 84.0038C57.7616 84.041 58.1486 84.06 58.54 84.06V83.06C58.1811 83.06 57.8264 83.0425 57.4766 83.0085L57.3797 84.0038ZM58.54 84.06C58.9314 84.06 59.3184 84.041 59.7004 84.0038L59.6034 83.0085C59.2536 83.0425 58.8989 83.06 58.54 83.06V84.06ZM61.9777 83.5525C62.7266 83.3254 63.4441 83.0261 64.1221 82.6628L63.6497 81.7814C63.0292 82.114 62.3726 82.3878 61.6875 82.5956L61.9777 83.5525ZM66.0506 81.3715C66.6495 80.8793 67.1993 80.3295 67.6915 79.7306L66.9189 79.0957C66.468 79.6443 65.9643 80.148 65.4157 80.5989L66.0506 81.3715ZM68.9828 77.8021C69.3461 77.1241 69.6454 76.4066 69.8725 75.6577L68.9156 75.3675C68.7078 76.0526 68.434 76.7092 68.1014 77.3297L68.9828 77.8021ZM70.3238 73.3804C70.361 72.9984 70.38 72.6114 70.38 72.22H69.38C69.38 72.5789 69.3625 72.9336 69.3285 73.2834L70.3238 73.3804ZM70.38 72.22V71.2337H69.38V72.22H70.38ZM70.38 69.2612V67.2888H69.38V69.2612H70.38ZM70.38 65.3162V64.33H69.38V65.3162H70.38ZM70.38 64.33C70.38 63.9711 70.3975 63.6164 70.4315 63.2666L69.4362 63.1697C69.399 63.5516 69.38 63.9386 69.38 64.33H70.38ZM70.8444 61.1825C71.0522 60.4974 71.326 59.8408 71.6586 59.2203L70.7772 58.7479C70.4139 59.4259 70.1146 60.1434 69.8875 60.8923L70.8444 61.1825ZM72.8411 57.4543C73.292 56.9057 73.7957 56.402 74.3443 55.9511L73.7094 55.1785C73.1105 55.6707 72.5607 56.2205 72.0685 56.8194L72.8411 57.4543ZM76.1103 54.7686C76.7308 54.436 77.3874 54.1622 78.0725 53.9544L77.7823 52.9975C77.0334 53.2246 76.3159 53.5239 75.6379 53.8872L76.1103 54.7686ZM80.1566 53.5415C80.5064 53.5075 80.8611 53.49 81.22 53.49V52.49C80.8286 52.49 80.4416 52.509 80.0597 52.5462L80.1566 53.5415ZM81.22 53.49C81.5789 53.49 81.9336 53.5075 82.2834 53.5415L82.3804 52.5462C81.9984 52.509 81.6114 52.49 81.22 52.49V53.49ZM84.3675 53.9544C85.0526 54.1622 85.7092 54.436 86.3297 54.7686L86.8021 53.8872C86.1241 53.5239 85.4066 53.2246 84.6577 52.9975L84.3675 53.9544ZM88.0957 55.9511C88.6443 56.402 89.148 56.9057 89.5989 57.4543L90.3715 56.8194C89.8793 56.2205 89.3295 55.6707 88.7306 55.1785L88.0957 55.9511ZM90.7814 59.2203C91.114 59.8408 91.3878 60.4974 91.5956 61.1825L92.5525 60.8923C92.3254 60.1434 92.0261 59.4259 91.6628 58.7479L90.7814 59.2203ZM92.0085 63.2666C92.0425 63.6164 92.06 63.9711 92.06 64.33H93.06C93.06 63.9386 93.041 63.5516 93.0038 63.1697L92.0085 63.2666ZM92.56 64.33C92.0658 64.2539 92.0658 64.254 92.0658 64.254C92.0658 64.254 92.0658 64.2541 92.0658 64.2541C92.0658 64.2542 92.0658 64.2542 92.0658 64.2543C92.0657 64.2545 92.0657 64.2547 92.0657 64.2549C92.0656 64.2553 92.0655 64.2558 92.0654 64.2564C92.0653 64.2576 92.065 64.2592 92.0647 64.2611C92.0641 64.2651 92.0633 64.2705 92.0624 64.2775C92.0604 64.2913 92.0576 64.3111 92.0543 64.3364C92.0476 64.3871 92.0387 64.4602 92.0288 64.553C92.0091 64.7385 91.986 65.0036 91.9713 65.3269L92.9702 65.3723C92.9839 65.0715 93.0054 64.8267 93.0232 64.6585C93.0321 64.5744 93.0401 64.5096 93.0458 64.4667C93.0486 64.4452 93.0508 64.4292 93.0523 64.419C93.053 64.4139 93.0536 64.4102 93.0539 64.408C93.054 64.407 93.0542 64.4063 93.0542 64.4059C93.0542 64.4058 93.0542 64.4057 93.0542 64.4057C93.0542 64.4057 93.0542 64.4058 93.0542 64.4058C93.0542 64.4058 93.0542 64.4059 93.0542 64.4059C93.0542 64.4059 93.0542 64.406 93.0542 64.406C93.0542 64.406 93.0542 64.4061 92.56 64.33ZM92.0366 67.4571C92.1116 68.1297 92.2491 68.8554 92.4887 69.5669L93.4364 69.2477C93.2248 68.6192 93.0995 67.9662 93.0304 67.3463L92.0366 67.4571ZM93.5032 71.5271C93.9416 72.103 94.5 72.6107 95.2057 72.9934L95.6824 72.1143C95.112 71.805 94.6593 71.3948 94.2988 70.9214L93.5032 71.5271ZM97.3248 73.66C97.6701 73.7061 98.0348 73.73 98.42 73.73V72.73C98.0762 72.73 97.7557 72.7087 97.457 72.6688L97.3248 73.66ZM98.42 73.73H99.4925V72.73H98.42V73.73ZM101.637 73.73H103.783V72.73H101.637V73.73Z" fill="white"/>
</g>
<defs>
<filter id="filter0_f_309_983" x="11.4961" y="51.9961" width="46.0078" height="46.0078" filterUnits="userSpaceOnUse" color-interpolation-filters="sRGB">
<feFlood flood-opacity="0" result="BackgroundImageFix"/>
<feBlend mode="normal" in="SourceGraphic" in2="BackgroundImageFix" result="shape"/>
<feGaussianBlur stdDeviation="2.5" result="effect1_foregroundBlur_309_983"/>
</filter>
<filter id="filter1_f_309_983" x="53.5" y="23" width="46" height="46" filterUnits="userSpaceOnUse" color-interpolation-filters="sRGB">
<feFlood flood-opacity="0" result="BackgroundImageFix"/>
<feBlend mode="normal" in="SourceGraphic" in2="BackgroundImageFix" result="shape"/>
<feGaussianBlur stdDeviation="2.5" result="effect1_foregroundBlur_309_983"/>
</filter>
<radialGradient id="paint0_radial_309_983" cx="0" cy="0" r="1" gradientUnits="userSpaceOnUse" gradientTransform="translate(52.5002 54.2507) rotate(135.228) scale(88.7426 72.8807)">
<stop offset="0.0577707" stop-color="#FC466B"/>
<stop offset="0.491536" stop-color="#3F5EFB" stop-opacity="0.37"/>
</radialGradient>
<radialGradient id="paint1_radial_309_983" cx="0" cy="0" r="1" gradientUnits="userSpaceOnUse" gradientTransform="translate(94.5001 25.2494) rotate(135.228) scale(88.7426 72.8807)">
<stop offset="0.0577707" stop-color="#FC466B"/>
<stop offset="0.491536" stop-color="#3F5EFB" stop-opacity="0.37"/>
</radialGradient>
</defs>
</svg>
