<svg width="121" height="120" viewBox="0 0 121 120" fill="none" xmlns="http://www.w3.org/2000/svg">
<g id="Frame 164887">
<g id="Ellipse 361" filter="url(#filter0_f_309_939)">
<circle cx="61" cy="60" r="36" fill="url(#paint0_radial_309_939)"/>
</g>
<g id="Group 1000002329">
<g id="&#38;lt;Radial Repeat&#38;gt;">
<path id="Vector" d="M23 98.5085L28.5768 97.0142L24.4943 92.9317L23 98.5085ZM25.4276 96.788L26.8104 95.4052L26.1032 94.6981L24.7205 96.0808L25.4276 96.788ZM28.1931 94.0225L29.5758 92.6398L28.8687 91.9327L27.486 93.3154L28.1931 94.0225ZM30.9585 91.2571L32.3412 89.8743L31.6341 89.1672L30.2514 90.55L30.9585 91.2571ZM33.724 88.4916L35.1067 87.1089L34.3996 86.4018L33.0168 87.7845L33.724 88.4916ZM36.4894 85.7262L37.8721 84.3435L37.165 83.6364L35.7823 85.0191L36.4894 85.7262ZM39.2548 82.9607L40.6376 81.578L39.9304 80.8709L38.5477 82.2536L39.2548 82.9607ZM42.0203 80.1953L42.7116 79.5039L42.0045 78.7968L41.3132 79.4882L42.0203 80.1953Z" fill="white"/>
</g>
<g id="&#38;lt;Radial Repeat&#38;gt;_2">
<path id="Vector_2" d="M23 22L24.4943 27.5768L28.5768 23.4943L23 22ZM24.7205 24.4276L26.1032 25.8104L26.8104 25.1032L25.4276 23.7205L24.7205 24.4276ZM27.486 27.1931L28.8687 28.5758L29.5758 27.8687L28.1931 26.486L27.486 27.1931ZM30.2514 29.9585L31.6341 31.3412L32.3412 30.6341L30.9585 29.2514L30.2514 29.9585ZM33.0168 32.724L34.3996 34.1067L35.1067 33.3996L33.724 32.0168L33.0168 32.724ZM35.7823 35.4894L37.165 36.8721L37.8721 36.165L36.4894 34.7823L35.7823 35.4894ZM38.5477 38.2548L39.9304 39.6376L40.6376 38.9304L39.2548 37.5477L38.5477 38.2548ZM41.3132 41.0203L42.0045 41.7116L42.7116 41.0045L42.0203 40.3132L41.3132 41.0203Z" fill="white"/>
</g>
<g id="&#38;lt;Radial Repeat&#38;gt;_3">
<path id="Vector_3" d="M99.5104 22L93.9337 23.4943L98.0161 27.5768L99.5104 22ZM80.5059 41.7116L81.1973 41.0203L80.4902 40.3132L79.7988 41.0045L80.5059 41.7116ZM82.58 39.6376L83.9627 38.2548L83.2556 37.5477L81.8729 38.9304L82.58 39.6376ZM85.3454 36.8721L86.7281 35.4894L86.021 34.7823L84.6383 36.165L85.3454 36.8721ZM88.1109 34.1067L89.4936 32.724L88.7865 32.0168L87.4038 33.3996L88.1109 34.1067ZM90.8763 31.3412L92.259 29.9585L91.5519 29.2514L90.1692 30.6341L90.8763 31.3412ZM93.6417 28.5758L95.0245 27.1931L94.3174 26.486L92.9346 27.8687L93.6417 28.5758ZM96.4072 25.8104L97.7899 24.4276L97.0828 23.7205L95.7001 25.1032L96.4072 25.8104Z" fill="white"/>
</g>
<g id="&#38;lt;Radial Repeat&#38;gt;_4">
<path id="Vector_4" d="M99.5104 98.5085L98.0161 92.9317L93.9337 97.0142L99.5104 98.5085ZM79.7988 79.5039L80.4902 80.1953L81.1973 79.4882L80.5059 78.7968L79.7988 79.5039ZM81.8729 81.578L83.2556 82.9607L83.9627 82.2536L82.58 80.8709L81.8729 81.578ZM84.6383 84.3435L86.021 85.7262L86.7281 85.0191L85.3454 83.6364L84.6383 84.3435ZM87.4038 87.1089L88.7865 88.4916L89.4936 87.7845L88.1109 86.4018L87.4038 87.1089ZM90.1692 89.8743L91.5519 91.2571L92.259 90.55L90.8763 89.1672L90.1692 89.8743ZM92.9346 92.6398L94.3174 94.0225L95.0245 93.3154L93.6417 91.9327L92.9346 92.6398ZM95.7001 95.4052L97.0828 96.788L97.7899 96.0808L96.4072 94.6981L95.7001 95.4052Z" fill="white"/>
</g>
</g>
</g>
<defs>
<filter id="filter0_f_309_939" x="20" y="19" width="82" height="82" filterUnits="userSpaceOnUse" color-interpolation-filters="sRGB">
<feFlood flood-opacity="0" result="BackgroundImageFix"/>
<feBlend mode="normal" in="SourceGraphic" in2="BackgroundImageFix" result="shape"/>
<feGaussianBlur stdDeviation="2.5" result="effect1_foregroundBlur_309_939"/>
</filter>
<radialGradient id="paint0_radial_309_939" cx="0" cy="0" r="1" gradientUnits="userSpaceOnUse" gradientTransform="translate(97 18.5) rotate(135.228) scale(177.485 145.761)">
<stop offset="0.0577707" stop-color="#FC466B"/>
<stop offset="0.491536" stop-color="#3F5EFB" stop-opacity="0.37"/>
</radialGradient>
</defs>
</svg>
