<svg width="10" height="10" viewBox="0 0 10 10" fill="none" xmlns="http://www.w3.org/2000/svg">
<path id="Vector" d="M1.03953 4.57734C0.463746 4.5789 -0.00155526 5.04688 3.90703e-06 5.62243C0.000672123 5.86099 0.0830854 6.09219 0.233657 6.27729L2.88135 9.52081C3.07291 9.75869 3.36737 9.88944 3.6723 9.87184C3.99371 9.85469 4.28394 9.68274 4.46881 9.40008L9.96912 0.542211C9.97001 0.540652 9.9709 0.539316 9.97201 0.537756C10.0237 0.458461 10.007 0.301431 9.90029 0.202757C9.7818 0.0931699 9.59715 0.100298 9.48734 0.218572C9.48333 0.223027 9.47932 0.227481 9.47553 0.232159C9.47353 0.234609 9.47152 0.237059 9.46952 0.239286L3.92265 6.50648C3.83467 6.60583 3.68277 6.61518 3.58342 6.5272C3.58253 6.52653 3.58186 6.52564 3.58097 6.52497L1.74004 4.84975C1.54893 4.67446 1.29902 4.57712 1.03953 4.5769V4.57734Z" fill="white"/>
</svg>
