<svg width="16" height="16" viewBox="0 0 16 16" xmlns="http://www.w3.org/2000/svg">
<g id="Group 1000002331">
<path id="Vector" d="M3.47345 5.40625H0V15.9967H3.47345V5.40625Z"/>
<path id="Vector_2" d="M1.78761 3.62433C0.800885 3.62433 0 2.81245 0 1.81217C0 0.811887 0.800885 0 1.78761 0C2.77434 0 3.57522 0.811887 3.57522 1.81217C3.57522 2.81245 2.77434 3.62433 1.78761 3.62433Z" />
<path id="Vector_3" d="M16.0007 16.0012H12.5273V10.3359C12.5273 8.91399 12.0273 7.94063 10.7662 7.94063C9.80604 7.94063 9.23524 8.59552 8.98303 9.22798C8.89011 9.45226 8.86798 9.77074 8.86798 10.0847V16.0012H5.39453C5.39453 16.0012 5.4432 6.40208 5.39453 5.41077H8.86798V6.91343C9.32816 6.19126 10.1512 5.16406 12.0007 5.16406C14.2883 5.16406 16.0007 6.6757 16.0007 9.93222V16.0057V16.0012Z"/>
</g>
</svg>
